<svg width="16" height="16" viewBox="0 0 16 16" fill="none" xmlns="http://www.w3.org/2000/svg">
<path d="M13.5 7V4" stroke="black" stroke-linecap="round" stroke-linejoin="round"/>
<path d="M15 5.5H12" stroke="black" stroke-linecap="round" stroke-linejoin="round"/>
<path d="M10.5 1.5V3.5" stroke="black" stroke-linecap="round" stroke-linejoin="round"/>
<path d="M11.5 2.5H9.5" stroke="black" stroke-linecap="round" stroke-linejoin="round"/>
<path d="M13.5437 9.53755C12.562 9.81283 11.5248 9.82185 10.5385 9.56369C9.55217 9.30553 8.65235 8.78949 7.93143 8.06857C7.21052 7.34765 6.69448 6.44783 6.43632 5.46152C6.17816 4.47522 6.18718 3.43797 6.46245 2.4563C5.49462 2.72568 4.61425 3.24394 3.90904 3.95944C3.20383 4.67495 2.6984 5.56274 2.44307 6.53438C2.18775 7.50602 2.19145 8.52759 2.45381 9.49736C2.71617 10.4671 3.22803 11.3512 3.93841 12.0616C4.64879 12.772 5.53289 13.2838 6.50265 13.5462C7.47241 13.8086 8.49399 13.8123 9.46563 13.5569C10.4373 13.3016 11.3251 12.7962 12.0406 12.091C12.7561 11.3858 13.2743 10.5054 13.5437 9.53755Z" stroke="black" stroke-linecap="round" stroke-linejoin="round"/>
</svg>


